
<svg xmlns="http://www.w3.org/2000/svg" xmlns:xlink="http://www.w3.org/1999/xlink" xmlns:serif="http://www.serif.com/" viewBox="0 0 900 333.75" version="1.1" xml:space="preserve" style="" x="10px" y="10px" fill-rule="evenodd" clip-rule="evenodd" stroke-linejoin="round" stroke-miterlimit="2"><path d="M238.68,62.353l-216.984,22.66c-1.144,0.12 -2.169,-0.711 -2.288,-1.855l-0.867,-8.302c-1.695,-16.228 10.104,-30.778 26.331,-32.473l162.324,-16.952c16.227,-1.695 30.777,10.104 32.472,26.331l0.867,8.302c0.12,1.145 -0.711,2.169 -1.855,2.289Zm-153.618,-1.968l29.368,-3.067c1.144,-0.119 1.975,-1.144 1.856,-2.288c-0.12,-1.144 -1.145,-1.975 -2.289,-1.856l-29.367,3.067c-1.144,0.12 -1.975,1.145 -1.856,2.289c0.119,1.143 1.145,1.975 2.288,1.855Zm-20.695,2.162l12.023,-1.256c1.143,-0.119 1.975,-1.145 1.856,-2.288c-0.12,-1.144 -1.145,-1.975 -2.289,-1.856l-12.022,1.256c-1.144,0.119 -1.976,1.144 -1.856,2.288c0.119,1.144 1.145,1.975 2.288,1.856Zm-20.695,2.161l12.023,-1.256c1.143,-0.119 1.975,-1.144 1.856,-2.288c-0.12,-1.144 -1.145,-1.975 -2.289,-1.856l-12.022,1.256c-1.144,0.119 -1.976,1.145 -1.856,2.288c0.119,1.144 1.145,1.975 2.288,1.856Z"/><path d="M78.44,99.272c39.113,-4.085 74.184,24.354 78.269,63.467c4.085,39.113 -24.353,74.184 -63.467,78.269c-39.113,4.084 -74.184,-24.354 -78.268,-63.467c-4.085,-39.113 24.353,-74.184 63.466,-78.269Zm7.401,20.288c-27.915,-0 -50.58,22.664 -50.58,50.58c0,27.916 22.665,50.58 50.58,50.58c27.916,-0 50.58,-22.664 50.58,-50.58c0,-27.916 -22.664,-50.58 -50.58,-50.58Z"/><path d="M85.841,129.57c11.78,0 21.344,9.564 21.344,21.345c0,6.815 -3.296,15.46 -8.406,21.277c-3.612,4.112 -8.12,6.796 -12.938,6.796c-4.817,-0 -9.325,-2.684 -12.937,-6.796c-5.11,-5.817 -8.407,-14.462 -8.407,-21.277c0,-11.781 9.564,-21.345 21.344,-21.345Z"/><path d="M141.961,206.879c8.178,-12.472 12.273,-27.732 10.604,-43.708c-3.846,-36.825 -36.866,-63.601 -73.692,-59.755c-21.599,2.256 -39.741,14.548 -50.275,31.758c-0.466,0.762 -1.366,1.141 -2.237,0.944c-0.87,-0.197 -1.519,-0.927 -1.612,-1.815l-6.208,-59.447c-1.695,-16.228 10.104,-30.778 26.331,-32.473l162.324,-16.952c16.227,-1.695 30.777,10.104 32.472,26.331l12.254,117.33c1.694,16.227 -10.104,30.778 -26.332,32.472l-81.671,8.53c-0.8,0.083 -1.577,-0.301 -1.995,-0.988c-0.419,-0.687 -0.405,-1.554 0.037,-2.227Zm14.748,-44.14c2.537,24.291 52.889,11.762 70.611,-5.043c19.388,-18.384 12.495,-64.41 12.495,-64.41l-4.291,-41.091c-1.456,-13.94 -13.955,-24.076 -27.896,-22.62l-162.323,16.952c-13.94,1.456 -24.076,13.956 -22.62,27.896c0,-0 5.61,53.721 5.612,53.719c11.473,-15.709 29.291,-26.692 50.143,-28.87c39.113,-4.085 74.184,24.354 78.269,63.467Z"/><path d="M44.176,190.6c1.357,-3.872 2.962,-7.664 4.629,-10.704c1.471,-2.683 3.023,-4.801 4.478,-6.01c3.617,-3.005 7.639,-4.626 11.402,-6.532c1.414,2.761 3.131,5.359 5.088,7.588c4.46,5.077 10.12,8.212 16.068,8.212c5.949,0 11.609,-3.135 16.068,-8.212c1.958,-2.229 3.674,-4.827 5.088,-7.588c3.764,1.906 7.785,3.527 11.403,6.532c1.863,1.548 3.975,4.637 5.915,8.461c1.215,2.396 2.378,5.084 3.4,7.823c-7.483,15.601 -23.429,26.383 -41.874,26.383c-18.275,0 -34.097,-10.585 -41.665,-25.953Z"/><text x="0" y="282" fill="#000000" font-size="5px" font-weight="bold" font-family="'Helvetica Neue', Helvetica, Arial-Unicode, Arial, Sans-serif">Created by zafdesign</text><text x="0" y="287" fill="#000000" font-size="5px" font-weight="bold" font-family="'Helvetica Neue', Helvetica, Arial-Unicode, Arial, Sans-serif">from the Noun Project</text></svg>