<svg xmlns="http://www.w3.org/2000/svg" data-name="Layer 1" viewBox="0 0 95 118.75" x="0px" y="0px"><path d="M29.148,36.926V60.544a5.544,5.544,0,0,0,.671,2.675H24.962V36.935h4.17l.016-.009Zm6.606-15.669.485.159,1.514.491v3.175l-1.514.49-.485.158a9.917,9.917,0,0,1-1.218,2.947l.234.457.719,1.415-1.125,1.123L33.24,32.8l-1.422-.722-.453-.233a9.793,9.793,0,0,1-2.936,1.22l-.172.489-.484,1.509H24.6l-.5-1.509-.156-.489a9.723,9.723,0,0,1-2.952-1.22l-.453.233-1.405.722-1.125-1.123-1.125-1.123.719-1.415.234-.457a9.514,9.514,0,0,1-1.218-2.947l-.484-.158-1.515-.49V21.907l1.515-.491.484-.159a9.529,9.529,0,0,1,1.218-2.948l-.234-.456-.719-1.415,1.125-1.123,1.125-1.121,1.405.72.453.233a9.748,9.748,0,0,1,2.952-1.22l.156-.487.5-1.511h3.171l.484,1.511.172.487a9.844,9.844,0,0,1,2.936,1.22l.453-.233,1.422-.72,1.124,1.121,1.125,1.123-.719,1.415-.234.456a9.934,9.934,0,0,1,1.218,2.948ZM26.18,17.6a5.9,5.9,0,1,0,5.9,5.9,5.894,5.894,0,0,0-5.9-5.9Zm32.769,54.05v4.743H46.391V71.646H28.257a3.3,3.3,0,0,1-3.3-3.288V65.225h6.653a5.6,5.6,0,0,0,3.2,1H70.523a5.678,5.678,0,0,0,3.217-1h6.638v3.133a3.3,3.3,0,0,1-3.28,3.288ZM38.534,78.4H66.805c3.5,0,6.357,2.1,6.388,4.676H32.146c.031-2.575,2.89-4.676,6.388-4.676ZM36.676,18.228l-.016.042a12.945,12.945,0,0,1,.625,1.511l2.343.76v4.182H74.209V21.907a3.692,3.692,0,0,0-3.686-3.679ZM53.435,52.5h3.577V50a1,1,0,0,1,1-1h3.576V46.88a1,1,0,0,1,1-1h4.576a1,1,0,0,1,1,1V59.19a1,1,0,0,1-1,1H53.435a1,1,0,0,1-1-1V53.5a1,1,0,0,1,1-1ZM63.588,50v8.193h2.577v-10.3H63.588V50Zm-4.577,3.5v4.69h2.577V51H59.011v2.5Zm-2,1H54.45v3.687h2.562V54.5Zm2.405-11.267a1,1,0,0,1,0-2h7.841a1,1,0,0,1,0,2Zm0-4.7a1,1,0,0,1,0-2h7.841a1,1,0,0,1,0,2Zm0-4.7a1,1,0,0,1,0-2h7.841a1,1,0,0,1,0,2ZM46.032,32.117a3.434,3.434,0,0,1,2.436,1.009,3.459,3.459,0,0,1,0,4.865,3.443,3.443,0,1,1-2.436-5.874Zm1.015,2.426a1.451,1.451,0,0,0-1.015-.421,1.437,1.437,0,0,0,0,2.873,1.451,1.451,0,0,0,1.015-.421,1.433,1.433,0,0,0,0-2.031Zm-1.015-5.578a8.551,8.551,0,1,0,6.06,2.51,8.519,8.519,0,0,0-6.06-2.51Zm4.639,3.926a6.565,6.565,0,0,0-9.9,8.571,7.109,7.109,0,0,1,1.749-1.493,6.843,6.843,0,0,1,7.014,0,6.586,6.586,0,0,1,1.749,1.493,6.484,6.484,0,0,0,1.312-3.928,6.552,6.552,0,0,0-1.921-4.643Zm-8.466,9.975a4.819,4.819,0,0,1,3.827-1.859,4.849,4.849,0,0,1,2.483.675,4.985,4.985,0,0,1,1.344,1.184,6.564,6.564,0,0,1-7.654,0ZM37.894,60.192a1,1,0,0,1,0-2h9.965a1,1,0,0,1,0,2Zm0-4.6a1,1,0,0,1,0-2h9.965a1,1,0,0,1,0,2Zm11.949-32.54a1,1,0,0,1,0-2H63.978a1,1,0,0,1,0,2Zm24.366,3.68H38.753l-1.468.48a12.844,12.844,0,0,1-.625,1.509l1.109,2.194L33.6,35.086l-2.187-1.118c-.093.043-.172.086-.265.126v26.45a3.688,3.688,0,0,0,3.67,3.678H70.523a3.692,3.692,0,0,0,3.686-3.678V26.728Zm2,5.892h.89a3.3,3.3,0,0,1,3.28,3.289v27.31H75.536a5.718,5.718,0,0,0,.672-2.675Z" style="" fill-rule="evenodd"/><text x="0" y="110" fill="#000000" font-size="5px" font-weight="bold" font-family="'Helvetica Neue', Helvetica, Arial-Unicode, Arial, Sans-serif">Created by Ifanicon</text><text x="0" y="115" fill="#000000" font-size="5px" font-weight="bold" font-family="'Helvetica Neue', Helvetica, Arial-Unicode, Arial, Sans-serif">from the Noun Project</text></svg>